# xmcd
#
# Track frame offsets:
#	150
#	23106
#	51474
#	76548
#	99479
#	122230
#	150244
#	181442
#	196729
#	218062
#	245101
#	268585
#	293698
#	312318
#
# Disc length: 4439 seconds
#
# Revision: 0
# Processed by: cddbd v1.4PL0 Copyright (c) Steve Scherf et al.
# Submitted via: audiograbber 1.81.01
#
DISCID=bb11550e
DTITLE=Q-Bass and DJ Brush - Rêce Do Góry
DYEAR=2000
DGENRE=House
TTITLE0=Rêce Do Góry
TTITLE1=Nocna Jazda
TTITLE2=Dee Jay
TTITLE3=Tañcz
TTITLE4=Zadyma
TTITLE5=Niedzielny Kac
TTITLE6=Damy Czadu
TTITLE7=Rock'n Roll'owe Dziewczyny
TTITLE8=Pieskie ¯ycie
TTITLE9=Przyjaciele
TTITLE10=Rêce Do Góry (House RMX)
TTITLE11=Nocna Jazda (Speed Chicken Mix)
TTITLE12=Tañcz (House Variation)
TTITLE13=Niedzielny Kac (Brovar Version)
EXTD=
EXTT0=
EXTT1=
EXTT2=
EXTT3=
EXTT4=
EXTT5=
EXTT6=
EXTT7=
EXTT8=
EXTT9=
EXTT10=
EXTT11=
EXTT12=
EXTT13=
PLAYORDER=
